<svg width="184" height="100" viewBox="0 0 184 100" fill="none" xmlns="http://www.w3.org/2000/svg">
<g clip-path="url(#clip0_0_2435)">
<path d="M45.2293 29.9537C45.2293 30.163 45.2293 30.3306 45.2293 30.499C45.2293 35.759 45.1947 41.019 45.2402 46.2781C45.2756 50.3726 44.3554 54.2272 42.6296 57.9066C40.8112 61.7807 38.3203 65.181 35.4131 68.2828C33.2188 70.6239 30.8408 72.7541 28.2539 74.647C27.9674 74.8562 27.7719 74.8758 27.482 74.6623C24.0077 72.1025 20.8629 69.182 18.1622 65.8038C16.9765 64.321 15.9426 62.714 14.8421 61.1614C14.762 61.0483 14.7014 60.9198 14.6533 60.8373C24.8428 50.5462 35.0128 40.2746 45.2301 29.9554L45.2293 29.9537Z" fill="black"/>
<path d="M118.996 75H118.267V25.2808H118.97V42.9195C119.542 42.9195 120.071 42.9127 120.599 42.9212C121.327 42.934 122.078 42.8498 122.78 42.9969C125.208 43.5065 126.727 45.6307 126.589 48.2008C126.465 50.5207 124.884 52.3718 122.636 52.7802C122.204 52.8584 121.748 52.7912 121.258 52.7912C121.258 53.5662 121.258 54.2706 121.258 54.9759C121.258 55.6811 121.258 56.3574 121.258 57.089H118.996V75V75ZM121.288 45.7813V49.9754C122.257 50.1089 123.082 49.9235 123.608 49.0481C124.086 48.2544 124.078 47.4351 123.582 46.6516C123.046 45.8043 122.235 45.6307 121.288 45.7805V45.7813Z" fill="black"/>
<path d="M12.8756 58.5854C12.5369 57.7832 12.1636 56.9521 11.8324 56.1047C10.7858 53.4326 10.1462 50.6695 10.0535 47.789C10.0325 47.1246 10.003 46.461 10.0021 45.7966C9.99876 39.0351 9.99961 32.2745 9.99961 25.513V25H46.1295C35.0629 36.1767 23.9878 47.3628 12.8756 58.5854ZM10.9223 25.8694V26.4003C10.9223 33.1192 10.9316 39.8382 10.9173 46.5572C10.9122 48.8771 11.2122 51.1502 11.8653 53.368C12.2335 54.6185 12.7079 55.8368 13.1166 57.0176C23.4325 46.5988 33.7053 36.2235 43.9571 25.8694H10.9223Z" fill="black"/>
<path d="M151.312 57.0907C150.402 57.0907 149.549 57.1018 148.695 57.0762C148.59 57.0728 148.443 56.8882 148.397 56.7589C147.984 55.6054 147.581 54.4475 147.196 53.2837C147.085 52.9486 146.943 52.7478 146.554 52.8142C146.351 52.849 146.137 52.8201 145.881 52.8201V57.0601H143.193V42.9424C143.347 42.9348 143.495 42.9212 143.642 42.9212C144.611 42.9195 145.58 42.9458 146.547 42.9152C148.627 42.848 150.733 44.4737 151.157 46.9417C151.464 48.7248 150.954 50.268 149.701 51.5525C149.52 51.7388 149.52 51.8869 149.598 52.1072C150.138 53.6479 150.668 55.1936 151.2 56.7368C151.232 56.8295 151.259 56.9231 151.312 57.0907ZM145.872 49.9728C146.885 50.1114 147.724 49.9098 148.263 48.997C148.72 48.2237 148.657 47.2164 148.114 46.5299C147.565 45.8357 146.954 45.5984 145.873 45.823V49.9728H145.872Z" fill="black"/>
<path d="M135.647 42.922C136.453 47.6477 137.254 52.3386 138.06 57.0652H135.342C135.222 56.3735 135.102 55.6844 134.978 54.9673C134.133 54.9673 133.321 54.9554 132.509 54.9826C132.411 54.986 132.262 55.18 132.233 55.3076C132.121 55.8018 132.061 56.308 131.952 56.8031C131.927 56.9137 131.781 57.0771 131.686 57.0796C130.89 57.1017 130.093 57.0924 129.229 57.0924C129.341 56.3939 129.44 55.7448 129.549 55.0974C129.96 52.6644 130.376 50.2322 130.787 47.7992C131.046 46.2704 131.295 44.74 131.563 43.2129C131.582 43.1058 131.716 42.9365 131.797 42.9356C133.072 42.9177 134.346 42.9228 135.647 42.9228V42.922ZM134.506 52.1148C134.229 50.518 133.957 48.9476 133.685 47.378C133.645 47.3823 133.606 47.3857 133.567 47.39C133.3 48.9621 133.032 50.5334 132.763 52.1148H134.506Z" fill="black"/>
<path d="M100.55 39.566C100.473 39.6307 100.431 39.6843 100.376 39.7115C98.1641 40.8047 96.9574 42.6881 96.3322 45.0089C95.7819 47.054 95.7431 49.134 95.9723 51.2327C96.1367 52.736 96.4788 54.1796 97.2026 55.5127C98.9208 58.6757 102.22 59.517 105.322 58.1363C106.415 57.6497 107.348 56.941 108.148 56.0444C108.229 55.9534 108.401 55.944 108.53 55.8964C108.538 56.035 108.6 56.2001 108.547 56.309C107.133 59.2363 104.616 61.0202 101.33 60.8118C97.8784 60.5923 95.4482 58.6927 93.7957 55.7152C93.039 54.3523 92.6893 52.8602 92.5966 51.3008C92.4584 48.9673 92.7155 46.6993 93.7031 44.5623C94.9957 41.7626 97.2456 40.1998 100.181 39.5524C100.249 39.5371 100.32 39.5354 100.39 39.5337C100.427 39.5337 100.465 39.5482 100.55 39.566V39.566Z" fill="black"/>
<path d="M173 47.0982H170.306C170.298 46.9689 170.289 46.8592 170.287 46.7494C170.271 46.0672 169.947 45.5806 169.393 45.4104C168.893 45.2564 168.338 45.4529 168.025 45.8962C167.68 46.3828 167.635 47.1221 168.013 47.561C168.3 47.8937 168.673 48.1667 169.044 48.4075C169.821 48.9094 170.679 49.2973 171.402 49.8656C173.731 51.6947 173.399 55.5816 170.832 56.981C168.44 58.2852 165.414 56.7173 165.065 53.9916C165.021 53.6445 164.998 53.2948 164.961 52.9078H167.654C167.671 53.1383 167.662 53.3655 167.708 53.5815C167.825 54.1354 168.256 54.5437 168.753 54.6067C169.373 54.6858 169.869 54.4442 170.126 53.938C170.414 53.3731 170.368 52.6364 169.914 52.2485C169.482 51.8793 168.983 51.5739 168.477 51.311C167.524 50.8142 166.597 50.291 165.943 49.402C164.272 47.1297 165.115 43.4929 168.03 42.6754C170.318 42.0339 172.692 43.6945 172.906 46.091C172.935 46.4126 172.965 46.7333 172.999 47.0999L173 47.0982Z" fill="black"/>
<path d="M61.5868 60.5497H54.7511C54.7343 60.5157 54.7166 60.4825 54.6997 60.4485C54.805 60.3719 54.9062 60.235 55.0157 60.229C56.5291 60.1414 56.7929 59.158 56.7971 57.9593C56.8114 54.3591 56.8021 50.7588 56.8021 47.1586C56.8021 45.3729 56.808 43.5864 56.7988 41.8008C56.7954 41.2504 56.744 40.7 56.7246 40.1487C56.7212 40.0458 56.7381 39.8748 56.792 39.8535C56.8872 39.8152 57.0423 39.8314 57.1299 39.8901C57.8892 40.3971 58.6476 40.9075 59.3832 41.4486C59.4919 41.5286 59.5231 41.7702 59.5239 41.9369C59.5315 45.7354 59.5298 49.5347 59.5298 53.3331C59.5298 54.8925 59.5214 56.4518 59.5366 58.0103C59.5399 58.3583 59.5888 58.7164 59.6832 59.0516C59.8888 59.7841 60.386 60.1346 61.2059 60.2214C61.3592 60.2375 61.5042 60.3413 61.6525 60.4043C61.6306 60.4527 61.6095 60.5021 61.5876 60.5506L61.5868 60.5497Z" fill="black"/>
<path d="M89.917 60.554H83.1167C83.0965 60.5141 83.0762 60.4741 83.0552 60.4349C83.1672 60.3618 83.2751 60.2342 83.3922 60.2248C84.6647 60.1236 85.0818 59.403 85.1155 58.2044C85.1492 57.0006 85.1231 55.796 85.1231 54.5914C85.1231 50.1277 85.1247 45.6639 85.1197 41.2002C85.1197 40.8344 85.0615 40.4686 85.0447 40.102C85.0304 39.7898 85.1922 39.7064 85.4374 39.8714C86.1958 40.3801 86.9542 40.8889 87.6848 41.4359C87.8103 41.5295 87.8432 41.8094 87.844 42.0033C87.8524 47.2318 87.8491 52.4612 87.8533 57.6897C87.8533 58.0419 87.8727 58.3975 87.9199 58.7463C88.037 59.614 88.6142 60.1363 89.5074 60.2129C89.7378 60.2327 89.8745 60.3465 89.9178 60.554H89.917Z" fill="black"/>
<path d="M71.3929 49.2897C71.3929 46.2986 71.3929 43.3074 71.3929 40.3163C71.3929 39.7293 71.4038 39.7191 71.9802 39.7183C72.5279 39.7183 73.0748 39.7183 73.6225 39.7183C74.2158 39.7183 74.2604 39.7616 74.2571 40.381C74.241 43.0301 74.2141 45.6792 74.2065 48.3284C74.1972 51.6172 74.1981 54.9061 74.209 58.195C74.2116 58.8713 74.2807 59.5476 74.3068 60.2239C74.3102 60.3218 74.2689 60.4519 74.2006 60.5106C74.1509 60.554 74.0017 60.5378 73.9335 60.4919C73.1389 59.9619 72.34 59.4362 71.5707 58.8704C71.4434 58.7769 71.4013 58.4987 71.4004 58.3047C71.3903 55.2991 71.3929 52.2944 71.3929 49.2888V49.2897Z" fill="black"/>
<path d="M159.469 57.1349H156.763V42.8914H159.469V57.1349Z" fill="black"/>
<path d="M103.945 39.4188C104.639 39.6443 105.346 39.8348 106.024 40.1028C107.086 40.5222 108.05 41.1254 108.906 41.8868C109.055 42.0195 109.204 42.2636 109.194 42.4482C109.117 43.9268 109.007 45.4036 108.89 46.8796C108.879 47.0157 108.755 47.1425 108.684 47.2735C108.607 47.1357 108.474 47.0013 108.463 46.8583C108.315 44.8396 107.78 42.9765 106.395 41.4393C105.775 40.751 105.04 40.2219 104.225 39.7974C104.104 39.7344 103.993 39.6511 103.876 39.5771C103.899 39.5243 103.922 39.4716 103.945 39.4188V39.4188Z" fill="black"/>
<path d="M64.7941 45.9744C64.2649 46.0467 64.2531 46.0178 64.2927 45.4878C64.3694 44.4448 64.4267 43.401 64.4848 42.3563C64.5236 41.6647 64.5547 40.973 64.5817 40.2814C64.5969 39.9011 64.7216 39.697 65.1606 39.7089C66.2232 39.7378 67.2875 39.7182 68.4773 39.7182C68.3433 39.8909 68.2919 40.0177 68.2001 40.067C66.1659 41.1619 65.2575 42.9918 64.9078 45.1883C64.8657 45.4504 64.832 45.7141 64.7941 45.9735V45.9744Z" fill="black"/>
<path d="M80.8612 45.9735C80.7946 45.4716 80.7592 44.9637 80.653 44.4711C80.546 43.9769 80.4087 43.4801 80.2081 43.0181C80.0084 42.5553 79.7564 42.1019 79.4506 41.7038C79.1447 41.3056 78.7688 40.9509 78.3779 40.6344C78.0071 40.3341 77.5773 40.1078 77.1729 39.8492C77.1939 39.8067 77.2158 39.7641 77.2369 39.7216C78.3829 39.7216 79.5289 39.7122 80.6741 39.7369C80.7862 39.7395 80.9817 39.9453 80.9909 40.067C81.1249 41.8994 81.2269 43.7344 81.3524 45.5686C81.3794 45.9641 81.248 46.0909 80.8603 45.9744L80.8612 45.9735Z" fill="black"/>
</g>
<defs>
<clipPath id="clip0_0_2435">
<rect width="163" height="50" fill="white" transform="translate(10 25)"/>
</clipPath>
</defs>
</svg>
